<svg xmlns="http://www.w3.org/2000/svg" viewBox="0 0 400 300" width="400" height="300" role="img" xmlns:c2pa="http://c2pa.org/manifest"><metadata><c2pa:manifest>AAAWgmp1bWIAAAAeanVtZGMycGEAEQAQgAAAqgA4m3EDYzJwYQAAABZcanVtYgAAAEdqdW1kYzJtYQARABCAAACqADibcQN1cm46YzJwYTpjY2MwNjkxZS05MDEyLTQ4OGItOGVmMC1hODcwYzZmMjk2MWEAAAADl2p1bWIAAAApanVtZGMyYXMAEQAQgAAAqgA4m3EDYzJwYS5hc3NlcnRpb25zAAAAALxqdW1iAAAARGp1bWRjYm9yABEAEIAAAKoAOJtxE2MycGEuaW5ncmVkaWVudC52MwAAAAAYYzJzaN7QkT96erGeci/4qEv8v8AAAABwY2JvcqNpZGM6Zm9ybWF0bWltYWdlL3N2Zyt4bWxqaW5zdGFuY2VJRHgseG1wOmlpZDo3NWYwMmZhMy0wYWUzLTQzZmMtYTY1My1jMGFiMTY3YWZmZWJscmVsYXRpb25zaGlwaHBhcmVudE9mAAAB4mp1bWIAAABBanVtZGNib3IAEQAQgAAAqgA4m3ETYzJwYS5hY3Rpb25zLnYyAAAAABhjMnNoNg5vQeXzR/0fIOP5Sr9ojQAAAZljYm9yomdhY3Rpb25zgqJmYWN0aW9ua2MycGEub3BlbmVkanBhcmFtZXRlcnOha2luZ3JlZGllbnRzgaJjdXJseC1zZWxmI2p1bWJmPWMycGEuYXNzZXJ0aW9ucy9jMnBhLmluZ3JlZGllbnQudjNkaGFzaFggPaDqvJPf7j0OX9Te/wAsvBKNdSDCgxy3Usr4zh5fk3ukZmFjdGlvbngdY29tLmFudGhyb3BpYy5jbGF1ZGUucHJvdmlkZWRqcGFyYW1ldGVyc6F4H2NvbS5hbnRocm9waWMub3JpZ2luLWNvbmZpZGVuY2VndW5rbm93bmtkZXNjcmlwdGlvbnhmQ2xhdWRlIHByb3ZpZGVkIHRoaXMgZmlsZSBhdCB0aGUgcmVxdWVzdCBvZiBhIHVzZXIgYW5kIG1heSBoYXZlIGNyZWF0ZWQgb3IgbW9kaWZpZWQgdGhlIGZpbGUgY29udGVudHMubXNvZnR3YXJlQWdlbnShZG5hbWVmQ2xhdWRlcmFsbEFjdGlvbnNJbmNsdWRlZPUAAADIanVtYgAAAEBqdW1kY2JvcgARABCAAACqADibcRNjMnBhLmhhc2guZGF0YQAAAAAYYzJzaLjgGhTYCxvENNk0AxqGu6gAAACAY2JvcqVjYWxnZnNoYTI1NmNwYWRNAAAAAAAAAAAAAAAAAGRoYXNoWCCqnPFyBKh23995vKzPFkj0f796g4ZSuJbLqsf7+Z5QEGRuYW1lbmp1bWJmIG1hbmlmZXN0amV4Y2x1c2lvbnOBomVzdGFydBihZmxlbmd0aBkeBAAAAj5qdW1iAAAAJ2p1bWRjMmNsABEAEIAAAKoAOJtxA2MycGEuY2xhaW0udjIAAAACD2Nib3KlY2FsZ2ZzaGEyNTZpc2lnbmF0dXJleE1zZWxmI2p1bWJmPS9jMnBhL3VybjpjMnBhOmNjYzA2OTFlLTkwMTItNDg4Yi04ZWYwLWE4NzBjNmYyOTYxYS9jMnBhLnNpZ25hdHVyZWppbnN0YW5jZUlEeCx4bXA6aWlkOjRhMmZlNWFhLTVmZmQtNDc3Mi1hNzk3LTNiNWI1NDZiYWRiMXJjcmVhdGVkX2Fzc2VydGlvbnODomN1cmx4LXNlbGYjanVtYmY9YzJwYS5hc3NlcnRpb25zL2MycGEuaW5ncmVkaWVudC52M2RoYXNoWCA9oOq8k9/uPQ5f1N7/ACy8Eo11IMKDHLdSyvjOHl+Te6JjdXJseCpzZWxmI2p1bWJmPWMycGEuYXNzZXJ0aW9ucy9jMnBhLmFjdGlvbnMudjJkaGFzaFggvsSu9Zb6O7f667KbdUtPVEETMa1U8kJy1WZoA8VBpvmiY3VybHgpc2VsZiNqdW1iZj1jMnBhLmFzc2VydGlvbnMvYzJwYS5oYXNoLmRhdGFkaGFzaFgg0QrN+N84EX/1NHBSv2yd2e3Ngud8+nzZ/u3mELyMx9x0Y2xhaW1fZ2VuZXJhdG9yX2luZm+jZG5hbWVvQW50aHJvcGljIEZpbGVzZ3ZlcnNpb25lMS4wLjBrc3BlY1ZlcnNpb25lMi40LjAAABA4anVtYgAAAChqdW1kYzJjcwARABCAAACqADibcQNjMnBhLnNpZ25hdHVyZQAAABAIY2JvctKEWQISogEmGCFZAgowggIGMIIBjaADAgECAhRA5aAK7sI50L64g/oGQgU9Z1UTADAKBggqhkjOPQQDAzBJMRcwFQYDVQQKEw5BbnRocm9waWMsIFBCQzEuMCwGA1UEAxMlQW50aHJvcGljIENvbnRlbnQgQ3JlZGVudGlhbHMgUm9vdCBDQTAeFw0yNjA4MDcxODQzNTZaFw0yODA4MDYxOTQzNTZaMEQxFzAVBgNVBAoTDkFudGhyb3BpYywgUEJDMSkwJwYDVQQDEyBBbnRocm9waWMgQ2xhdWRlIENvbnRlbnQgU2lnbmluZzBZMBMGByqGSM49AgEGCCqGSM49AwEHA0IABJh6CmvLUBgFFNU0vUKlOVtE6djd17L5SuwX0LemFisBM3dkd/3cyjxFA3Qo5S46fX0/ihY0VZ7mfb9KF703t5OjWDBWMA4GA1UdDwEB/wQEAwIHgDAVBgNVHSUEDjAMBgorBgEEAYPoXgIBMAwGA1UdEwEB/wQCMAAwHwYDVR0jBBgwFoAUzlHiBIFOZFsj+OPEz5o+nMHXXMIwCgYIKoZIzj0EAwMDZwAwZAIwMXMdFJ4BetLLVY7ORuE9noqbbAZOZn/aArXyTwFAZfKrPzxF2vPoJNf1+UCdg1XGAjBwX1zd9WGqYkqmL5SFqw1QySjr1zJfpJM9+1rdDwSPLMOPOjKuiXjoU/pUUeG9RwmhY3BhZFkNngAAAAAAAAAAAAAAAAAAAAAAAAAAAAAAAAAAAAAAAAAAAAAAAAAAAAAAAAAAAAAAAAAAAAAAAAAAAAAAAAAAAAAAAAAAAAAAAAAAAAAAAAAAAAAAAAAAAAAAAAAAAAAAAAAAAAAAAAAAAAAAAAAAAAAAAAAAAAAAAAAAAAAAAAAAAAAAAAAAAAAAAAAAAAAAAAAAAAAAAAAAAAAAAAAAAAAAAAAAAAAAAAAAAAAAAAAAAAAAAAAAAAAAAAAAAAAAAAAAAAAAAAAAAAAAAAAAAAAAAAAAAAAAAAAAAAAAAAAAAAAAAAAAAAAAAAAAAAAAAAAAAAAAAAAAAAAAAAAAAAAAAAAAAAAAAAAAAAAAAAAAAAAAAAAAAAAAAAAAAAAAAAAAAAAAAAAAAAAAAAAAAAAAAAAAAAAAAAAAAAAAAAAAAAAAAAAAAAAAAAAAAAAAAAAAAAAAAAAAAAAAAAAAAAAAAAAAAAAAAAAAAAAAAAAAAAAAAAAAAAAAAAAAAAAAAAAAAAAAAAAAAAAAAAAAAAAAAAAAAAAAAAAAAAAAAAAAAAAAAAAAAAAAAAAAAAAAAAAAAAAAAAAAAAAAAAAAAAAAAAAAAAAAAAAAAAAAAAAAAAAAAAAAAAAAAAAAAAAAAAAAAAAAAAAAAAAAAAAAAAAAAAAAAAAAAAAAAAAAAAAAAAAAAAAAAAAAAAAAAAAAAAAAAAAAAAAAAAAAAAAAAAAAAAAAAAAAAAAAAAAAAAAAAAAAAAAAAAAAAAAAAAAAAAAAAAAAAAAAAAAAAAAAAAAAAAAAAAAAAAAAAAAAAAAAAAAAAAAAAAAAAAAAAAAAAAAAAAAAAAAAAAAAAAAAAAAAAAAAAAAAAAAAAAAAAAAAAAAAAAAAAAAAAAAAAAAAAAAAAAAAAAAAAAAAAAAAAAAAAAAAAAAAAAAAAAAAAAAAAAAAAAAAAAAAAAAAAAAAAAAAAAAAAAAAAAAAAAAAAAAAAAAAAAAAAAAAAAAAAAAAAAAAAAAAAAAAAAAAAAAAAAAAAAAAAAAAAAAAAAAAAAAAAAAAAAAAAAAAAAAAAAAAAAAAAAAAAAAAAAAAAAAAAAAAAAAAAAAAAAAAAAAAAAAAAAAAAAAAAAAAAAAAAAAAAAAAAAAAAAAAAAAAAAAAAAAAAAAAAAAAAAAAAAAAAAAAAAAAAAAAAAAAAAAAAAAAAAAAAAAAAAAAAAAAAAAAAAAAAAAAAAAAAAAAAAAAAAAAAAAAAAAAAAAAAAAAAAAAAAAAAAAAAAAAAAAAAAAAAAAAAAAAAAAAAAAAAAAAAAAAAAAAAAAAAAAAAAAAAAAAAAAAAAAAAAAAAAAAAAAAAAAAAAAAAAAAAAAAAAAAAAAAAAAAAAAAAAAAAAAAAAAAAAAAAAAAAAAAAAAAAAAAAAAAAAAAAAAAAAAAAAAAAAAAAAAAAAAAAAAAAAAAAAAAAAAAAAAAAAAAAAAAAAAAAAAAAAAAAAAAAAAAAAAAAAAAAAAAAAAAAAAAAAAAAAAAAAAAAAAAAAAAAAAAAAAAAAAAAAAAAAAAAAAAAAAAAAAAAAAAAAAAAAAAAAAAAAAAAAAAAAAAAAAAAAAAAAAAAAAAAAAAAAAAAAAAAAAAAAAAAAAAAAAAAAAAAAAAAAAAAAAAAAAAAAAAAAAAAAAAAAAAAAAAAAAAAAAAAAAAAAAAAAAAAAAAAAAAAAAAAAAAAAAAAAAAAAAAAAAAAAAAAAAAAAAAAAAAAAAAAAAAAAAAAAAAAAAAAAAAAAAAAAAAAAAAAAAAAAAAAAAAAAAAAAAAAAAAAAAAAAAAAAAAAAAAAAAAAAAAAAAAAAAAAAAAAAAAAAAAAAAAAAAAAAAAAAAAAAAAAAAAAAAAAAAAAAAAAAAAAAAAAAAAAAAAAAAAAAAAAAAAAAAAAAAAAAAAAAAAAAAAAAAAAAAAAAAAAAAAAAAAAAAAAAAAAAAAAAAAAAAAAAAAAAAAAAAAAAAAAAAAAAAAAAAAAAAAAAAAAAAAAAAAAAAAAAAAAAAAAAAAAAAAAAAAAAAAAAAAAAAAAAAAAAAAAAAAAAAAAAAAAAAAAAAAAAAAAAAAAAAAAAAAAAAAAAAAAAAAAAAAAAAAAAAAAAAAAAAAAAAAAAAAAAAAAAAAAAAAAAAAAAAAAAAAAAAAAAAAAAAAAAAAAAAAAAAAAAAAAAAAAAAAAAAAAAAAAAAAAAAAAAAAAAAAAAAAAAAAAAAAAAAAAAAAAAAAAAAAAAAAAAAAAAAAAAAAAAAAAAAAAAAAAAAAAAAAAAAAAAAAAAAAAAAAAAAAAAAAAAAAAAAAAAAAAAAAAAAAAAAAAAAAAAAAAAAAAAAAAAAAAAAAAAAAAAAAAAAAAAAAAAAAAAAAAAAAAAAAAAAAAAAAAAAAAAAAAAAAAAAAAAAAAAAAAAAAAAAAAAAAAAAAAAAAAAAAAAAAAAAAAAAAAAAAAAAAAAAAAAAAAAAAAAAAAAAAAAAAAAAAAAAAAAAAAAAAAAAAAAAAAAAAAAAAAAAAAAAAAAAAAAAAAAAAAAAAAAAAAAAAAAAAAAAAAAAAAAAAAAAAAAAAAAAAAAAAAAAAAAAAAAAAAAAAAAAAAAAAAAAAAAAAAAAAAAAAAAAAAAAAAAAAAAAAAAAAAAAAAAAAAAAAAAAAAAAAAAAAAAAAAAAAAAAAAAAAAAAAAAAAAAAAAAAAAAAAAAAAAAAAAAAAAAAAAAAAAAAAAAAAAAAAAAAAAAAAAAAAAAAAAAAAAAAAAAAAAAAAAAAAAAAAAAAAAAAAAAAAAAAAAAAAAAAAAAAAAAAAAAAAAAAAAAAAAAAAAAAAAAAAAAAAAAAAAAAAAAAAAAAAAAAAAAAAAAAAAAAAAAAAAAAAAAAAAAAAAAAAAAAAAAAAAAAAAAAAAAAAAAAAAAAAAAAAAAAAAAAAAAAAAAAAAAAAAAAAAAAAAAAAAAAAAAAAAAAAAAAAAAAAAAAAAAAAAAAAAAAAAAAAAAAAAAAAAAAAAAAAAAAAAAAAAAAAAAAAAAAAAAAAAAAAAAAAAAAAAAAAAAAAAAAAAAAAAAAAAAAAAAAAAAAAAAAAAAAAAAAAAAAAAAAAAAAAAAAAAAAAAAAAAAAAAAAAAAAAAAAAAAAAAAAAAAAAAAAAAAAAAAAAAAAAAAAAAAAAAAAAAAAAAAAAAAAAAAAAAAAAAAAAAAAAAAAAAAAAAAAAAAAAAAAAAAAAAAAAAAAAAAAAAAAAAAAAAAAAAAAAAAAAAAAAAAAAAAAAAAAAAAAAAAAAAAAAAAAAAAAAAAAAAAAAAAAAAAAAAAAAAAAAAAAAAAAAAAAAAAAAAAAAAAAAAAAAAAAAAAAAAAAAAAAAAAAAAAAAAAAAAAAAAAAAAAAAAAAAAAAAAAAAAAAAAAAAAAAAAAAAAAAAAAAAAAAAAAAAAAAAAAAAAAAAAAAAAAAAAAAAAAAAAAAAAAAAAAAAAAAAAAAAAAAAAAAAAAAAAAAAAAAAAAAAAAAAAAAAAAAAAAAAAAAAAAAAAAAAAAAAAAAAAAAAAAAAAAAAAAAAAAAAAAAAAAAAAAAAAAAAAAAAAAAAAAAAAAAAAAAAAAAAAAAAAAAAAAAAAAAAAAAAAAAAAAAAAAAAAAAAAAAAAAAAAAAAAAAAAAAAAAAAAAAAAAAAAAAAAAAAAAAAAAAAAAAAAAAAAAAAAAAAAAAAAAAAAAAAAAAAAAAAAAAAAAAAAAAAAAAAAAAAAAAAAAAAAAAAAAAAAAAAAAAAAAAAAAAAAAAAAAAAAAAAAAAAAAAAAAAAAAAAAAAAAAAAAAAAAAAAAAAAAAAAAAAAAAAAAAAAAAAAAAAAAAAAAAAAAAAAAAAAAAAAAAAAAAAAAAAAAAAAAAAAAAAAAAAAAAAAAAAAAAAAAAAAAAAAAAAAAAAAAAAAAAAAAAAAAAAAAAAAAAAAAAAAAAAAAAAAAAAAAAAAAAAAAAAAAAAAAAAAAAAAAAAAAAAAAAAAAAAAAAAAAAAAAAAAAAAAAAAAAAAAAAAAAAAAAAAAAAAAAAAAAAAAAAAAAAAAAAAAAAAAAAAAAAAAAAAAAAAAAAAAAAAAAAAAAAAAAAAAAAAAAAAAAAAAAAAAAAAAAAAAAAAAAAAAAAAAAAAAAAAAAAAAAAAAAAAAAAAAAAAAAAAAAAAAAAAAAAAAAAAAAAAAAAAAAAAAAAAAAAAAAAAAAAAAAAAAAAAAAAAAAAAAAAAAAAAAAAAAAAAAAAAAAAAAAAAAAAAAAAAAAAAAAAAAAAAAAAAAAAAAAAAAAAAAAAAAAAAAAAAAAAAAAAAAAAAAAAAAAAAAAAAAAAAAAAAAAAAAAAAAAAAAAAAAAAAAAAAAAAAAAAAAAAAAAAAAAAAAAAAAAAAAAAAAAAAAAAAAAAAAAAAAAAAAAAAAAAAAAAAAAAAAAAAAAAAAAAAAAAAAAAAAAAAAAAAAAAAAAAAAAAAAAAAAAAAAAAAAAAAAAAAAAAAAAAAAAAAAAAAAAAAAAAAAAAAAAAAAAAAAAAAAAAAAAAAAAAAAAAAAAAAAAAAAAAAAAAAAAAAAAAAAAAAAAAAAAAAAAAAAAAAAAAAAAAAAAAAAAAAAAAAAAAAAAAAAAAAAAAAAAAAAAAAAAAAAAAAAAAAAAAAAAAAAAAAAAAAAAPZYQFWsx93i2hFrl2qmXVoIZvjYZGSMYx9YzHdAYqKCh3P3dkXN363kxyE1fMXOvN2pQvhgjrDGEYRSHDvf08tjhxw=</c2pa:manifest></metadata>
  <rect width="400" height="300" fill="url(#bg)"/>
  <circle cx="338" cy="48" r="88" fill="#ffffff" opacity="0.38"/>
  <circle cx="44" cy="272" r="72" fill="#ffffff" opacity="0.26"/>
  
  <g transform="translate(2 128) scale(0.58)">
    <ellipse cx="112" cy="150" rx="82" ry="13" fill="#2b231d" opacity="0.10"/>
    <g transform="rotate(-6 110 88)">
      <path d="M30 96C28 56 62 30 106 32C140 34 166 48 186 74C200 92 196 112 176 122C140 142 70 148 44 126C32 116 30 106 30 96Z" fill="url(#skin-t1)"/>
      <path d="M30 96C28 56 62 30 106 32C140 34 166 48 186 74C200 92 196 112 176 122C140 142 70 148 44 126C32 116 30 106 30 96Z" fill="url(#blush-t1)"/>
      <path d="M52 74C62 52 84 40 112 39C90 48 70 62 60 82C54 94 44 90 52 74Z" fill="#ffffff" opacity="0.45"/>
      <path d="M100 34C99 26 99 20 101 14" stroke="#a35b12" stroke-width="7" stroke-linecap="round" fill="none"/>
      <path d="M100 30C94 12 104 -4 128 -8C133 10 122 26 100 30Z" fill="url(#leaf-t1)"/>
      <path d="M104 26C110 16 118 8 128 2" stroke="#12421f" stroke-width="2.4" stroke-linecap="round" fill="none" opacity="0.45"/>
    </g>
    <defs>
      <linearGradient id="skin-t1" x1="40" y1="34" x2="188" y2="140" gradientUnits="userSpaceOnUse">
        <stop stop-color="#ffd24a"/>
        <stop offset="1" stop-color="#f09400"/>
      </linearGradient>
      <radialGradient id="blush-t1" cx="0" cy="0" r="1" gradientTransform="translate(178 108) rotate(163) scale(120 96)" gradientUnits="userSpaceOnUse">
        <stop stop-color="#d9531a" stop-opacity="0.8"/>
        <stop offset="1" stop-color="#d9531a" stop-opacity="0"/>
      </radialGradient>
      <linearGradient id="leaf-t1" x1="100" y1="30" x2="130" y2="-8" gradientUnits="userSpaceOnUse">
        <stop stop-color="#4ab86a"/>
        <stop offset="1" stop-color="#156230"/>
      </linearGradient>
    </defs>
  </g>
  <g transform="translate(214 122) scale(0.62)">
    <ellipse cx="112" cy="150" rx="82" ry="13" fill="#2b231d" opacity="0.10"/>
    <g transform="rotate(-28 110 88)">
      <path d="M30 96C28 56 62 30 106 32C140 34 166 48 186 74C200 92 196 112 176 122C140 142 70 148 44 126C32 116 30 106 30 96Z" fill="url(#skin-t3)"/>
      <path d="M30 96C28 56 62 30 106 32C140 34 166 48 186 74C200 92 196 112 176 122C140 142 70 148 44 126C32 116 30 106 30 96Z" fill="url(#blush-t3)"/>
      <path d="M52 74C62 52 84 40 112 39C90 48 70 62 60 82C54 94 44 90 52 74Z" fill="#ffffff" opacity="0.45"/>
      <path d="M100 34C99 26 99 20 101 14" stroke="#a35b12" stroke-width="7" stroke-linecap="round" fill="none"/>
      <path d="M100 30C94 12 104 -4 128 -8C133 10 122 26 100 30Z" fill="url(#leaf-t3)"/>
      <path d="M104 26C110 16 118 8 128 2" stroke="#12421f" stroke-width="2.4" stroke-linecap="round" fill="none" opacity="0.45"/>
    </g>
    <defs>
      <linearGradient id="skin-t3" x1="40" y1="34" x2="188" y2="140" gradientUnits="userSpaceOnUse">
        <stop stop-color="#ffd24a"/>
        <stop offset="1" stop-color="#f09400"/>
      </linearGradient>
      <radialGradient id="blush-t3" cx="0" cy="0" r="1" gradientTransform="translate(178 108) rotate(163) scale(120 96)" gradientUnits="userSpaceOnUse">
        <stop stop-color="#d9531a" stop-opacity="0.8"/>
        <stop offset="1" stop-color="#d9531a" stop-opacity="0"/>
      </radialGradient>
      <linearGradient id="leaf-t3" x1="100" y1="30" x2="130" y2="-8" gradientUnits="userSpaceOnUse">
        <stop stop-color="#4ab86a"/>
        <stop offset="1" stop-color="#156230"/>
      </linearGradient>
    </defs>
  </g>
  <g transform="translate(92 56) scale(0.92)">
    <ellipse cx="112" cy="150" rx="82" ry="13" fill="#2b231d" opacity="0.10"/>
    <g transform="rotate(-18 110 88)">
      <path d="M30 96C28 56 62 30 106 32C140 34 166 48 186 74C200 92 196 112 176 122C140 142 70 148 44 126C32 116 30 106 30 96Z" fill="url(#skin-t2)"/>
      <path d="M30 96C28 56 62 30 106 32C140 34 166 48 186 74C200 92 196 112 176 122C140 142 70 148 44 126C32 116 30 106 30 96Z" fill="url(#blush-t2)"/>
      <path d="M52 74C62 52 84 40 112 39C90 48 70 62 60 82C54 94 44 90 52 74Z" fill="#ffffff" opacity="0.45"/>
      <path d="M100 34C99 26 99 20 101 14" stroke="#a35b12" stroke-width="7" stroke-linecap="round" fill="none"/>
      <path d="M100 30C94 12 104 -4 128 -8C133 10 122 26 100 30Z" fill="url(#leaf-t2)"/>
      <path d="M104 26C110 16 118 8 128 2" stroke="#12421f" stroke-width="2.4" stroke-linecap="round" fill="none" opacity="0.45"/>
    </g>
    <defs>
      <linearGradient id="skin-t2" x1="40" y1="34" x2="188" y2="140" gradientUnits="userSpaceOnUse">
        <stop stop-color="#ffd24a"/>
        <stop offset="1" stop-color="#f09400"/>
      </linearGradient>
      <radialGradient id="blush-t2" cx="0" cy="0" r="1" gradientTransform="translate(178 108) rotate(163) scale(120 96)" gradientUnits="userSpaceOnUse">
        <stop stop-color="#d9531a" stop-opacity="0.8"/>
        <stop offset="1" stop-color="#d9531a" stop-opacity="0"/>
      </radialGradient>
      <linearGradient id="leaf-t2" x1="100" y1="30" x2="130" y2="-8" gradientUnits="userSpaceOnUse">
        <stop stop-color="#4ab86a"/>
        <stop offset="1" stop-color="#156230"/>
      </linearGradient>
    </defs>
  </g>
  <defs>
    <linearGradient id="bg" x1="0" y1="0" x2="400" y2="300" gradientUnits="userSpaceOnUse">
      <stop stop-color="#fff0cb"/>
      <stop offset="1" stop-color="#ffffff"/>
    </linearGradient>
  </defs>
</svg>
